<?xml version="1.0" standalone="no"?>
<!DOCTYPE svg PUBLIC "-//W3C//DTD SVG 20010904//EN"
 "http://www.w3.org/TR/2001/REC-SVG-20010904/DTD/svg10.dtd">
<svg version="1.0" xmlns="http://www.w3.org/2000/svg"
 width="8268.000000pt" height="11693.000000pt" viewBox="0 0 8268.000000 11693.000000"
 preserveAspectRatio="xMidYMid meet">

<g transform="translate(0.000000,11693.000000) scale(0.100000,-0.100000)"
fill="#000000" stroke="none">
<path d="M43988 86499 c-42 -4 -114 -17 -160 -28 -69 -16 -1908 -605 -3958
-1266 -245 -79 -935 -302 -1535 -495 -19114 -6165 -29900 -9821 -31318 -10617
-132 -74 -193 -134 -245 -244 -53 -111 -67 -173 -66 -294 1 -191 71 -354 205
-481 97 -91 199 -139 451 -209 86 -25 558 -182 1050 -351 4518 -1549 6749
-2285 8098 -2673 262 -75 355 -108 471 -167 235 -117 399 -297 444 -485 67
-285 -82 -624 -481 -1092 -71 -83 -334 -359 -584 -612 -580 -588 -709 -731
-930 -1035 -817 -1121 -1311 -2560 -1455 -4240 -33 -384 -38 -522 -45 -1195
-7 -658 -8 -705 -28 -785 -68 -282 -208 -520 -414 -707 -30 -27 -101 -85 -159
-128 -738 -556 -1259 -1288 -1493 -2098 -144 -495 -191 -1188 -121 -1747 83
-657 307 -1190 682 -1622 251 -289 478 -434 948 -603 306 -110 438 -187 595
-344 341 -344 503 -871 461 -1501 -48 -706 -250 -1454 -821 -3029 -498 -1374
-1106 -2633 -1838 -3806 -1000 -1601 -2136 -3044 -3544 -4502 -239 -248 -332
-389 -407 -618 -52 -160 -65 -271 -58 -499 14 -486 122 -923 332 -1351 167
-340 363 -606 644 -878 452 -435 1071 -777 1777 -982 573 -166 1090 -238 1724
-239 365 -1 519 9 827 50 1796 240 3260 1400 4455 3529 215 383 513 977 735
1465 665 1457 1025 3088 1061 4795 28 1296 -100 2537 -399 3875 -205 917 -530
1977 -879 2870 -113 289 -140 407 -140 620 0 156 20 280 70 431 84 255 166
375 446 659 294 298 430 464 588 722 272 445 435 913 502 1443 22 171 25 575
6 740 -98 834 -447 1550 -1038 2125 -265 259 -546 458 -885 630 -254 129 -359
199 -484 325 -202 202 -334 453 -379 724 -26 156 -20 442 19 901 113 1304 431
2517 955 3643 l83 177 -506 939 c-278 517 -511 959 -517 982 -22 82 5 145 78
181 l47 23 1187 10 1187 11 253 250 c353 349 585 550 947 822 466 350 1024
690 1541 940 428 206 1935 863 2960 1290 1847 769 3234 1300 6125 2344 3203
1156 4343 1590 6450 2453 1564 641 2615 1046 3645 1407 2623 917 4297 1223
4955 905 93 -45 171 -106 283 -219 114 -115 199 -232 263 -363 125 -258 124
-460 -5 -720 -68 -135 -157 -255 -288 -386 -131 -130 -248 -217 -383 -283 -70
-35 -2769 -1048 -7380 -2771 -4290 -1602 -7315 -2737 -7380 -2769 -371 -181
-619 -500 -707 -909 -31 -147 -31 -398 1 -547 126 -595 541 -996 1113 -1077
122 -17 280 -14 17888 366 9771 211 18015 389 18320 397 596 14 641 18 820 77
458 149 9700 3331 9769 3363 666 311 989 1089 751 1805 -74 223 -185 405 -345
564 -161 162 -350 278 -585 360 -2753 960 -33724 11705 -33787 11721 -155 39
-306 50 -465 33z m-27688 -44065 c36 -31 54 -64 86 -156 114 -335 164 -1266
99 -1858 -38 -352 -117 -733 -212 -1025 -34 -104 -138 -338 -220 -495 -536
-1020 -1332 -1768 -2245 -2109 -453 -169 -890 -240 -1403 -228 -327 7 -350 13
-600 137 -313 155 -545 292 -693 409 -115 91 -143 174 -73 215 41 24 112 25
661 12 301 -7 378 -6 508 8 669 72 1262 349 1877 877 257 222 591 567 767 794
408 526 738 1214 957 1993 68 241 98 364 181 737 116 521 154 645 215 693 36
29 57 28 95 -4z"/>
<path d="M53045 65379 c-517 -4 -1214 -14 -1550 -23 -335 -8 -826 -20 -1090
-26 -264 -5 -682 -14 -930 -20 -1179 -26 -1429 -31 -2105 -45 -399 -8 -927
-19 -1175 -25 -920 -21 -1388 -31 -2095 -45 -399 -8 -930 -19 -1180 -25 -580
-13 -1266 -27 -1870 -40 -427 -9 -875 -18 -2340 -50 -250 -6 -678 -14 -950
-20 -272 -6 -688 -15 -925 -20 -236 -6 -666 -15 -955 -20 -289 -5 -709 -14
-935 -20 -225 -5 -536 -12 -690 -15 -154 -3 -581 -12 -950 -20 -368 -8 -888
-19 -1155 -25 -1080 -23 -1790 -40 -1887 -46 -82 -5 -109 -10 -134 -27 -43
-29 -69 -82 -69 -138 0 -54 -59 43 660 -1079 967 -1508 1090 -1703 1585 -2510
180 -294 3019 -4898 6308 -10230 7550 -12241 8722 -14141 8754 -14199 l27 -47
-1950 -3449 c-1072 -1897 -1958 -3460 -1969 -3474 l-21 -24 -36 54 c-19 30
-1287 2090 -2818 4579 -1716 2790 -2798 4539 -2821 4561 -94 92 -251 88 -343
-7 -45 -47 -1433 -2272 -1463 -2346 -51 -124 -42 -272 23 -401 14 -27 1328
-2137 2921 -4689 2785 -4464 2895 -4641 2888 -4677 -3 -20 -7 -47 -8 -61 -1
-18 249 -431 847 -1400 984 -1594 944 -1530 961 -1530 8 0 36 37 63 83 44 73
1957 3486 5745 10252 696 1243 1281 2287 1301 2319 52 86 49 102 -42 252 -43
71 -1919 3153 -4169 6849 -2249 3696 -5573 9157 -7385 12135 -1812 2978 -3401
5588 -3530 5800 -346 569 -328 533 -285 549 12 5 407 15 877 21 470 6 954 15
1075 20 121 5 398 9 615 10 217 1 544 5 725 10 182 5 755 16 1275 25 520 8
1069 19 1220 25 151 5 446 10 655 10 209 1 522 5 695 10 173 5 765 16 1315 24
550 9 1010 18 1022 21 13 3 382 10 820 15 439 5 942 14 1118 20 176 6 649 15
1050 20 402 6 903 14 1115 19 212 5 636 12 943 16 635 7 590 14 544 -81 -14
-29 -689 -1256 -1498 -2726 -810 -1470 -1489 -2704 -1508 -2741 -28 -54 -36
-83 -39 -137 -5 -87 8 -127 64 -189 85 -94 -67 -86 1578 -89 1653 -3 1524 -9
1610 81 39 42 505 865 2363 4172 1272 2266 2323 4145 2335 4175 12 33 23 88
26 137 11 186 -90 354 -265 442 -89 45 -78 45 -1988 30z"/>
</g>
</svg>
